<?xml version="1.0" standalone="no"?>
<!DOCTYPE svg PUBLIC "-//W3C//DTD SVG 20010904//EN"
 "http://www.w3.org/TR/2001/REC-SVG-20010904/DTD/svg10.dtd">
<svg version="1.0" xmlns="http://www.w3.org/2000/svg"
 width="114.000000pt" height="119.000000pt" viewBox="0 0 114.000000 119.000000"
 preserveAspectRatio="xMidYMid meet">

<g transform="translate(0.000000,119.000000) scale(0.100000,-0.100000)"
fill="#000000" stroke="none">
<path d="M487 974 c-14 -14 -8 -92 8 -98 30 -11 14 -33 -38 -49 -29 -9 -68
-28 -86 -41 -34 -26 -57 -25 -47 0 10 25 -16 26 -41 1 -25 -25 -24 -51 1 -41
25 10 26 -13 1 -46 -38 -52 -59 -126 -58 -208 2 -131 76 -242 202 -300 80 -37
192 -37 272 0 78 36 133 89 171 165 26 54 31 75 31 136 0 88 -14 140 -52 198
-29 43 -31 65 -5 55 25 -10 26 16 1 41 -27 28 -48 24 -40 -7 7 -26 2 -25 -51
9 -25 15 -66 34 -91 41 -46 13 -58 32 -29 48 11 6 14 21 12 53 l-3 44 -75 3
c-42 1 -79 0 -83 -4z m137 -33 c4 -5 3 -16 0 -25 -5 -12 -20 -16 -60 -16 -51
0 -54 1 -54 25 0 24 3 25 54 25 30 0 57 -4 60 -9z m-34 -81 c0 -5 -11 -10 -25
-10 -14 0 -25 5 -25 10 0 6 11 10 25 10 14 0 25 -4 25 -10z m121 -81 c108 -58
164 -154 163 -279 0 -64 -5 -84 -32 -137 -118 -230 -440 -227 -554 5 -28 56
-33 77 -33 137 0 117 58 216 156 270 70 38 102 45 177 40 46 -3 79 -13 123
-36z"/>
<path d="M490 761 c-123 -40 -198 -149 -188 -274 7 -78 34 -133 92 -184 98
-86 244 -86 343 1 143 126 117 351 -52 438 -43 23 -152 33 -195 19z m202 -56
c69 -49 101 -104 106 -179 5 -80 -10 -127 -57 -179 -48 -53 -101 -77 -176 -77
-136 0 -235 100 -235 236 0 67 29 132 78 175 55 48 88 60 169 56 61 -2 78 -7
115 -32z"/>
<path d="M620 580 c-54 -52 -61 -53 -93 -13 -20 25 -47 31 -47 10 0 -7 13 -26
29 -41 21 -20 27 -33 23 -53 -4 -22 -2 -24 13 -16 10 6 27 8 38 5 16 -4 19 -1
15 15 -4 16 7 33 43 69 46 45 61 74 40 74 -5 0 -33 -23 -61 -50z"/>
</g>
</svg>
