<?xml version="1.0" standalone="no"?>
<!DOCTYPE svg PUBLIC "-//W3C//DTD SVG 20010904//EN"
 "http://www.w3.org/TR/2001/REC-SVG-20010904/DTD/svg10.dtd">
<svg version="1.0" xmlns="http://www.w3.org/2000/svg"
 width="103.000000pt" height="79.000000pt" viewBox="0 0 103.000000 79.000000"
 preserveAspectRatio="xMidYMid meet">

<g transform="translate(0.000000,79.000000) scale(0.100000,-0.100000)"
fill="#000000" stroke="none">
<path d="M285 672 c-47 -22 -102 -81 -112 -120 -9 -36 -10 -101 0 -134 6 -23
4 -27 -15 -30 -38 -5 -33 -28 5 -28 31 0 40 -7 72 -50 20 -27 64 -74 98 -103
65 -57 192 -147 207 -147 5 0 39 21 77 46 159 109 260 221 289 321 13 45 14
62 4 105 -34 141 -205 204 -325 120 l-45 -32 -45 32 c-58 41 -147 49 -210 20z
m182 -37 c23 -14 43 -30 43 -34 0 -25 36 -18 77 16 41 33 53 38 112 41 61 3
69 1 109 -28 54 -39 87 -106 79 -161 -13 -95 -118 -222 -270 -327 l-77 -53
-77 53 c-79 54 -223 188 -223 207 0 6 14 11 31 11 18 0 37 7 44 17 11 15 15
11 33 -30 29 -66 56 -65 77 5 8 28 15 61 15 72 0 47 18 -5 28 -82 21 -153 51
-163 88 -28 l16 59 25 -32 c30 -38 37 -38 65 -6 18 21 31 25 75 25 40 0 53 4
53 15 0 12 -14 15 -69 15 -61 0 -70 -3 -76 -20 -9 -27 -18 -25 -38 10 -30 50
-54 40 -74 -30 -9 -33 -19 -57 -23 -53 -4 4 -13 49 -20 98 -15 106 -24 135
-44 135 -10 0 -19 -19 -27 -57 -6 -32 -16 -76 -22 -98 l-10 -40 -18 43 c-23
52 -46 63 -70 34 -12 -15 -28 -22 -52 -22 -32 0 -35 3 -47 45 -22 77 8 155 79
202 49 33 129 32 188 -2z"/>
</g>
</svg>
