<?xml version="1.0" standalone="no"?>
<!DOCTYPE svg PUBLIC "-//W3C//DTD SVG 20010904//EN"
 "http://www.w3.org/TR/2001/REC-SVG-20010904/DTD/svg10.dtd">
<svg version="1.0" xmlns="http://www.w3.org/2000/svg"
 width="109.000000pt" height="96.000000pt" viewBox="0 0 109.000000 96.000000"
 preserveAspectRatio="xMidYMid meet">

<g transform="translate(0.000000,96.000000) scale(0.100000,-0.100000)"
fill="#000000" stroke="none">
<path d="M763 813 c-31 -6 -73 -59 -73 -91 0 -25 -2 -24 -53 26 l-53 52 -110
0 c-119 0 -134 -6 -134 -51 0 -48 22 -59 114 -59 140 0 140 -1 -77 -219 -200
-200 -211 -217 -167 -261 39 -39 65 -27 177 82 l103 102 32 -32 32 -32 -52
-53 c-55 -55 -66 -93 -37 -117 35 -29 66 -15 147 67 48 50 78 89 78 102 0 11
-16 39 -36 61 l-37 41 23 24 c29 31 40 32 40 3 0 -42 12 -47 110 -53 114 -6
143 5 148 52 4 43 -26 63 -95 63 l-53 0 0 38 c0 21 -5 43 -12 50 -9 9 -6 12
15 12 42 0 89 48 89 92 0 49 -17 77 -57 94 -19 8 -36 13 -37 13 -2 -1 -13 -4
-25 -6z m74 -46 c40 -41 9 -117 -48 -117 -65 0 -93 80 -42 120 28 22 66 21 90
-3z m-172 -87 c88 -88 94 -96 97 -139 l3 -46 70 -5 c63 -4 70 -7 73 -27 4 -29
-20 -35 -118 -31 l-75 3 -3 53 c-2 28 -8 52 -13 52 -15 0 -98 -70 -110 -93 -9
-16 -4 -26 30 -61 23 -23 41 -49 41 -57 0 -25 -145 -160 -164 -153 -28 11 -17
37 41 96 l57 58 -45 47 c-26 27 -57 67 -70 91 l-23 43 74 74 74 75 -28 29
c-27 28 -34 30 -115 33 -80 3 -86 5 -89 25 -4 28 12 31 116 28 l84 -2 93 -93z
m-220 -240 c22 -24 22 -23 -94 -138 -90 -87 -123 -101 -129 -53 -3 19 16 43
89 117 52 52 99 94 105 94 6 0 19 -9 29 -20z"/>
<path d="M337 634 c-18 -18 -2 -24 64 -24 52 0 70 3 67 13 -5 13 -119 23 -131
11z"/>
<path d="M263 538 c2 -8 22 -13 52 -13 30 0 50 5 53 13 3 9 -12 12 -53 12 -41
0 -56 -3 -52 -12z"/>
<path d="M205 460 c-3 -5 0 -13 9 -16 21 -8 71 -1 71 11 0 14 -72 19 -80 5z"/>
</g>
</svg>
