<?xml version="1.0" standalone="no"?>
<!DOCTYPE svg PUBLIC "-//W3C//DTD SVG 20010904//EN"
 "http://www.w3.org/TR/2001/REC-SVG-20010904/DTD/svg10.dtd">
<svg version="1.0" xmlns="http://www.w3.org/2000/svg"
 width="104.000000pt" height="115.000000pt" viewBox="0 0 104.000000 115.000000"
 preserveAspectRatio="xMidYMid meet">

<g transform="translate(0.000000,115.000000) scale(0.100000,-0.100000)"
fill="#000000" stroke="none">
<path d="M343 856 c-96 -87 -212 -363 -213 -506 0 -125 132 -185 435 -197 155
-6 194 1 246 44 49 42 72 97 67 164 -7 103 -83 179 -178 179 -45 0 -72 -11
-108 -43 -18 -17 -36 -21 -95 -21 l-72 -1 0 70 c0 39 -4 89 -9 112 l-8 42 33
-9 c61 -18 107 -13 124 14 22 33 29 89 15 115 -16 31 -106 71 -157 71 -35 0
-50 -7 -80 -34z m180 -24 c21 -12 33 -27 35 -45 3 -28 -4 -32 -45 -21 -18 5
-22 11 -17 30 8 31 -20 33 -36 3 -15 -26 8 -55 51 -64 16 -4 29 -11 29 -17 0
-11 -69 -6 -132 8 -26 6 -28 4 -28 -24 0 -17 7 -61 15 -97 9 -37 13 -76 9 -88
-3 -11 -27 -42 -52 -69 -25 -27 -42 -51 -39 -55 4 -3 35 8 68 25 79 41 138 43
191 7 20 -14 42 -25 47 -25 18 0 12 21 -10 39 l-21 17 32 27 c24 21 42 27 77
27 88 0 153 -70 153 -165 0 -57 -19 -96 -67 -132 -34 -26 -43 -28 -150 -31
-211 -7 -387 31 -442 93 -26 29 -31 44 -31 84 0 116 104 373 185 457 44 46 45
47 96 41 28 -4 65 -15 82 -25z"/>
</g>
</svg>
