<?xml version="1.0" standalone="no"?>
<!DOCTYPE svg PUBLIC "-//W3C//DTD SVG 20010904//EN"
 "http://www.w3.org/TR/2001/REC-SVG-20010904/DTD/svg10.dtd">
<svg version="1.0" xmlns="http://www.w3.org/2000/svg"
 width="110.000000pt" height="98.000000pt" viewBox="0 0 110.000000 98.000000"
 preserveAspectRatio="xMidYMid meet">

<g transform="translate(0.000000,98.000000) scale(0.100000,-0.100000)"
fill="#000000" stroke="none">
<path d="M605 815 c-16 -15 -25 -36 -25 -55 0 -27 -3 -30 -24 -24 -33 8 -71
-15 -133 -78 -88 -90 -88 -131 2 -210 55 -49 55 -50 55 -108 0 -67 15 -90 60
-90 41 0 60 32 60 103 0 52 -4 65 -36 109 l-37 50 25 25 26 25 12 -36 c15 -47
34 -56 114 -56 69 0 106 20 106 55 0 28 -38 55 -79 55 -34 0 -40 4 -49 28 -5
15 -13 35 -17 45 -6 13 -2 17 17 17 36 0 72 43 72 87 0 73 -96 111 -149 58z
m109 -27 c9 -12 16 -28 16 -36 0 -18 -46 -62 -65 -62 -23 0 -55 37 -55 64 0
54 74 78 104 34z m-102 -125 c20 -20 39 -47 43 -62 10 -41 24 -51 72 -51 31 0
45 -5 50 -16 9 -25 -16 -34 -82 -32 l-60 3 -22 48 c-13 26 -26 47 -31 47 -4 0
-27 -19 -50 -43 l-42 -43 40 -57 c38 -53 41 -61 38 -114 -3 -54 -5 -58 -28
-58 -24 0 -25 4 -30 65 -5 62 -7 68 -49 105 -70 63 -71 65 -71 99 0 25 11 42
53 83 87 84 105 87 169 26z"/>
<path d="M240 439 c-69 -28 -110 -106 -91 -177 32 -115 171 -150 254 -63 33
36 37 46 37 94 0 112 -101 185 -200 146z m118 -39 c46 -28 68 -82 53 -131 -36
-118 -196 -118 -232 0 -21 71 40 151 116 151 17 0 45 -9 63 -20z"/>
<path d="M335 288 c-6 -13 -20 -27 -33 -33 -28 -12 -22 -31 9 -27 28 3 59 36
59 63 0 26 -23 24 -35 -3z"/>
<path d="M710 431 c-50 -27 -73 -62 -77 -123 -7 -97 58 -162 155 -155 66 5
101 30 126 89 23 56 16 104 -21 149 -49 58 -121 74 -183 40z m120 -24 c34 -17
70 -74 70 -111 0 -36 -29 -84 -62 -102 -13 -8 -43 -13 -66 -14 -37 0 -50 6
-78 34 -28 28 -34 42 -34 75 0 23 7 56 16 72 25 50 101 73 154 46z"/>
<path d="M820 286 c-5 -13 -18 -27 -29 -31 -12 -3 -21 -13 -21 -21 0 -11 6
-13 23 -8 34 10 57 35 57 61 0 30 -18 30 -30 -1z"/>
</g>
</svg>
