<?xml version="1.0" standalone="no"?>
<!DOCTYPE svg PUBLIC "-//W3C//DTD SVG 20010904//EN"
 "http://www.w3.org/TR/2001/REC-SVG-20010904/DTD/svg10.dtd">
<svg version="1.0" xmlns="http://www.w3.org/2000/svg"
 width="640.000000pt" height="428.000000pt" viewBox="0 0 640.000000 428.000000"
 preserveAspectRatio="xMidYMid meet">

<g transform="translate(0.000000,428.000000) scale(0.100000,-0.100000)"
fill="#000000" stroke="none">
<path d="M4950 3846 c0 -2 7 -9 15 -16 13 -11 14 -10 9 4 -5 14 -24 23 -24 12z"/>
<path d="M4805 3797 c10 -15 20 -25 23 -22 3 3 -5 16 -17 28 l-23 22 17 -28z"/>
<path d="M4655 3770 c3 -5 8 -10 11 -10 2 0 4 5 4 10 0 6 -5 10 -11 10 -5 0
-7 -4 -4 -10z"/>
<path d="M4480 3766 c0 -4 14 -24 30 -43 17 -18 30 -30 30 -25 0 12 -60 80
-60 68z"/>
<path d="M4610 3732 c0 -7 6 -15 14 -18 8 -3 34 -44 57 -90 39 -78 59 -102 59
-71 0 7 -12 33 -28 58 -15 24 -33 57 -40 72 -6 15 -20 30 -29 34 -10 4 -21 11
-25 17 -5 7 -8 7 -8 -2z"/>
<path d="M4685 3730 c3 -5 8 -10 11 -10 2 0 4 5 4 10 0 6 -5 10 -11 10 -5 0
-7 -4 -4 -10z"/>
<path d="M4803 3705 c-26 -26 -34 -41 -31 -62 3 -25 8 -28 43 -31 37 -3 43 1
72 39 18 23 30 46 27 51 -4 6 -11 0 -18 -13 -14 -28 -84 -65 -97 -52 -18 18 2
64 32 75 16 5 29 14 29 19 0 18 -23 8 -57 -26z"/>
<path d="M4167 3670 c19 -32 70 -95 56 -70 -14 27 -65 100 -70 100 -2 0 4 -14
14 -30z"/>
<path d="M4330 3699 c0 -3 11 -20 25 -39 14 -19 25 -30 25 -24 -1 10 -50 73
-50 63z"/>
<path d="M4293 3636 c0 -18 3 -24 9 -18 7 7 7 16 0 28 -8 14 -9 13 -9 -10z"/>
<path d="M4485 3620 c-3 -5 -1 -10 4 -10 6 0 11 5 11 10 0 6 -2 10 -4 10 -3 0
-8 -4 -11 -10z"/>
<path d="M3258 3613 c7 -3 16 -2 19 1 4 3 -2 6 -13 5 -11 0 -14 -3 -6 -6z"/>
<path d="M3148 3583 c7 -3 16 -2 19 1 4 3 -2 6 -13 5 -11 0 -14 -3 -6 -6z"/>
<path d="M3940 3577 c0 -15 27 -43 34 -36 3 2 -4 15 -15 28 -13 16 -19 18 -19
8z"/>
<path d="M4512 3583 c3 -5 15 -32 28 -60 14 -30 31 -53 39 -53 12 0 12 3 3 12
-7 7 -12 19 -12 27 0 18 -42 81 -53 81 -5 0 -7 -3 -5 -7z"/>
<path d="M3912 3540 c12 -16 26 -30 30 -30 5 0 -1 14 -14 30 -12 17 -26 30
-30 30 -5 0 1 -13 14 -30z"/>
<path d="M3038 3553 c7 -3 16 -2 19 1 4 3 -2 6 -13 5 -11 0 -14 -3 -6 -6z"/>
<path d="M3820 3554 c0 -10 42 -65 46 -61 6 6 -29 67 -38 67 -5 0 -8 -3 -8 -6z"/>
<path d="M3565 3530 c-3 -5 -1 -10 4 -10 6 0 11 5 11 10 0 6 -2 10 -4 10 -3 0
-8 -4 -11 -10z"/>
<path d="M3750 3531 c0 -5 7 -14 15 -21 8 -7 15 -26 15 -43 0 -28 1 -30 16
-16 14 14 13 19 -8 52 -22 35 -38 47 -38 28z"/>
<path d="M4342 3503 c5 -52 44 -93 81 -86 19 4 27 11 27 26 0 19 -1 19 -20 2
-16 -15 -21 -15 -33 -3 -8 7 -19 30 -26 51 -17 52 -33 58 -29 10z"/>
<path d="M4176 3503 c3 -16 8 -34 10 -41 6 -21 -7 -63 -19 -59 -6 2 -14 14
-17 27 -3 13 -12 26 -19 28 -13 4 -11 -8 10 -65 13 -36 46 -29 60 12 8 22 18
34 26 31 7 -3 13 -1 13 4 0 6 -4 10 -8 10 -5 0 -18 18 -31 40 -26 47 -34 51
-25 13z"/>
<path d="M3690 3515 c0 -5 11 -23 25 -40 13 -16 24 -25 24 -20 0 6 -11 24 -24
40 -14 17 -25 26 -25 20z"/>
<path d="M2858 3503 c6 -2 18 -2 25 0 6 3 1 5 -13 5 -14 0 -19 -2 -12 -5z"/>
<path d="M3590 3505 c0 -16 51 -87 58 -80 4 3 2 9 -4 13 -5 4 -20 23 -32 42
-12 19 -22 30 -22 25z"/>
<path d="M2748 3473 c6 -2 18 -2 25 0 6 3 1 5 -13 5 -14 0 -19 -2 -12 -5z"/>
<path d="M2688 3453 c7 -3 16 -2 19 1 4 3 -2 6 -13 5 -11 0 -14 -3 -6 -6z"/>
<path d="M4293 3446 c-39 -14 -52 -26 -30 -26 22 0 67 21 67 32 0 4 -1 7 -2 7
-2 -1 -17 -7 -35 -13z"/>
<path d="M2625 3440 c-8 -13 5 -13 25 0 13 8 13 10 -2 10 -9 0 -20 -4 -23 -10z"/>
<path d="M2578 3423 c6 -2 18 -2 25 0 6 3 1 5 -13 5 -14 0 -19 -2 -12 -5z"/>
<path d="M3839 3357 c21 -40 36 -78 33 -85 -2 -7 6 -12 22 -12 31 0 33 11 6
35 -11 10 -20 23 -20 29 0 17 -59 106 -69 106 -5 0 7 -33 28 -73z"/>
<path d="M2468 3393 c6 -2 18 -2 25 0 6 3 1 5 -13 5 -14 0 -19 -2 -12 -5z"/>
<path d="M2408 3373 c7 -3 16 -2 19 1 4 3 -2 6 -13 5 -11 0 -14 -3 -6 -6z"/>
<path d="M2346 3361 c-3 -4 6 -6 19 -3 14 2 25 6 25 8 0 8 -39 4 -44 -5z"/>
<path d="M2298 3343 c6 -2 18 -2 25 0 6 3 1 5 -13 5 -14 0 -19 -2 -12 -5z"/>
<path d="M2235 3330 c-8 -13 15 -13 35 0 12 8 11 10 -7 10 -12 0 -25 -4 -28
-10z"/>
<path d="M2178 3313 c6 -2 18 -2 25 0 6 3 1 5 -13 5 -14 0 -19 -2 -12 -5z"/>
<path d="M2956 3305 c-8 -21 3 -44 27 -56 l20 -11 -20 28 c-11 16 -18 35 -16
42 7 17 -4 15 -11 -3z"/>
<path d="M3026 3306 c3 -9 11 -16 16 -16 13 0 5 23 -10 28 -7 2 -10 -2 -6 -12z"/>
<path d="M2125 3300 c-3 -5 3 -10 14 -10 12 0 21 5 21 10 0 6 -6 10 -14 10 -8
0 -18 -4 -21 -10z"/>
<path d="M2060 3280 c0 -13 11 -13 30 0 12 8 11 10 -7 10 -13 0 -23 -4 -23
-10z"/>
<path d="M2840 3272 c0 -12 19 -26 26 -19 2 2 -2 10 -11 17 -9 8 -15 8 -15 2z"/>
<path d="M1985 3263 c-11 -3 -24 -10 -30 -15 -7 -7 -2 -8 15 -4 14 4 39 11 55
16 27 7 28 8 5 8 -14 0 -34 -2 -45 -5z"/>
<path d="M2780 3257 c0 -4 11 -25 25 -45 14 -20 25 -30 25 -22 0 15 -49 81
-50 67z"/>
<path d="M2927 3229 c4 -13 9 -17 15 -11 11 11 3 32 -12 32 -4 0 -6 -9 -3 -21z"/>
<path d="M1855 3225 c-22 -7 -62 -20 -90 -28 -27 -9 -44 -16 -36 -16 17 -1
127 27 156 39 11 5 29 11 40 13 16 4 14 5 -5 5 -14 0 -43 -5 -65 -13z"/>
<path d="M2662 3228 c-11 -14 0 -52 17 -63 14 -8 14 1 0 26 -7 15 -7 24 2 35
6 8 7 14 1 14 -5 0 -14 -6 -20 -12z"/>
<path d="M2581 3201 c-11 -7 -10 -15 9 -41 12 -17 24 -29 27 -26 3 2 -2 15
-10 27 -9 11 -13 28 -10 35 6 16 3 17 -16 5z"/>
<path d="M2522 3168 c3 -7 13 -15 24 -17 16 -3 17 -1 5 13 -16 19 -34 21 -29
4z"/>
<path d="M2750 3169 c0 -5 5 -7 10 -4 6 3 10 8 10 11 0 2 -4 4 -10 4 -5 0 -10
-5 -10 -11z"/>
<path d="M2450 3152 c0 -11 8 -26 18 -35 29 -26 35 -20 13 12 -11 15 -18 31
-14 35 3 3 1 6 -5 6 -7 0 -12 -8 -12 -18z"/>
<path d="M1618 3153 c6 -2 18 -2 25 0 6 3 1 5 -13 5 -14 0 -19 -2 -12 -5z"/>
<path d="M2238 3153 c7 -3 16 -2 19 1 4 3 -2 6 -13 5 -11 0 -14 -3 -6 -6z"/>
<path d="M2708 3153 c7 -3 16 -2 19 1 4 3 -2 6 -13 5 -11 0 -14 -3 -6 -6z"/>
<path d="M1560 3140 c-12 -8 -11 -10 7 -10 12 0 25 5 28 10 8 13 -15 13 -35 0z"/>
<path d="M2382 3117 c-14 -40 -16 -70 -3 -63 10 6 26 84 19 91 -2 3 -10 -10
-16 -28z"/>
<path d="M2190 3135 c0 -18 72 -115 85 -115 11 0 8 8 -12 25 -22 19 -25 27
-15 33 11 7 9 11 -8 15 -12 3 -24 15 -27 26 -5 18 -23 30 -23 16z"/>
<path d="M1485 3120 c-3 -5 -18 -11 -33 -11 -20 -1 -22 -3 -7 -6 11 -2 38 3
60 11 35 13 37 15 13 15 -15 1 -30 -3 -33 -9z"/>
<path d="M2345 3120 c3 -5 8 -10 11 -10 2 0 4 5 4 10 0 6 -5 10 -11 10 -5 0
-7 -4 -4 -10z"/>
<path d="M2550 3109 c0 -5 5 -7 10 -4 6 3 10 8 10 11 0 2 -4 4 -10 4 -5 0 -10
-5 -10 -11z"/>
<path d="M2880 3105 c0 -8 4 -15 9 -15 5 0 11 7 15 15 3 9 0 15 -9 15 -8 0
-15 -7 -15 -15z"/>
<path d="M2920 3098 c0 -9 -6 -19 -12 -21 -8 -4 -7 -6 3 -6 9 -1 27 -17 40
-36 13 -19 32 -37 41 -40 9 -3 40 -27 67 -53 62 -59 67 -89 19 -125 -18 -14
-48 -28 -65 -32 -37 -8 -54 -25 -24 -25 10 0 25 -2 33 -3 7 -2 10 -2 6 0 -16
9 -7 21 21 26 45 9 91 54 91 88 0 35 -27 63 -154 160 -15 12 -37 36 -47 53
-12 20 -19 25 -19 14z"/>
<path d="M1385 3090 c-3 -5 1 -10 9 -10 8 0 18 5 21 10 3 6 -1 10 -9 10 -8 0
-18 -4 -21 -10z"/>
<path d="M2784 3079 c-14 -15 -16 -24 -8 -37 13 -21 62 -28 78 -11 8 9 7 10
-7 6 -10 -4 -27 -2 -39 4 -18 10 -18 12 -4 28 9 10 16 21 16 24 0 13 -17 7
-36 -14z"/>
<path d="M1333 3073 c9 -2 23 -2 30 0 6 3 -1 5 -18 5 -16 0 -22 -2 -12 -5z"/>
<path d="M4088 3073 c7 -3 16 -2 19 1 4 3 -2 6 -13 5 -11 0 -14 -3 -6 -6z"/>
<path d="M1270 3060 c-12 -8 -11 -10 7 -10 12 0 25 5 28 10 8 13 -15 13 -35 0z"/>
<path d="M1155 3030 c-33 -9 -67 -19 -75 -23 -8 -3 -24 -8 -35 -10 -16 -4 -15
-5 5 -5 14 -1 43 5 65 13 22 8 49 15 60 15 11 1 34 7 50 15 42 19 6 17 -70 -5z"/>
<path d="M1990 3035 c-10 -12 -9 -20 4 -39 16 -25 52 -43 63 -32 4 3 -1 6 -10
6 -22 0 -49 43 -41 64 8 20 0 21 -16 1z"/>
<path d="M2085 3026 c9 -14 13 -31 8 -42 -6 -17 -5 -17 10 -6 16 13 14 34 -6
60 -17 22 -28 13 -12 -12z"/>
<path d="M1840 3016 c0 -8 11 -27 25 -42 26 -29 33 -54 13 -54 -6 0 -9 -2 -6
-5 7 -7 38 5 38 15 0 13 -54 99 -62 100 -5 0 -8 -7 -8 -14z"/>
<path d="M2605 3023 c11 -3 28 -12 38 -21 22 -20 48 -72 41 -83 -3 -5 -1 -9 5
-9 15 0 26 23 13 28 -7 2 -12 14 -12 27 0 30 -44 65 -79 64 -21 -1 -22 -2 -6
-6z"/>
<path d="M3058 3023 c7 -3 16 -2 19 1 4 3 -2 6 -13 5 -11 0 -14 -3 -6 -6z"/>
<path d="M1920 3015 c0 -10 45 -75 53 -75 11 0 8 10 -14 46 -18 29 -39 45 -39
29z"/>
<path d="M4678 2993 c7 -3 16 -2 19 1 4 3 -2 6 -13 5 -11 0 -14 -3 -6 -6z"/>
<path d="M965 2980 c-11 -4 -49 -16 -85 -25 -92 -24 -100 -28 -66 -33 16 -2
32 0 35 5 6 8 67 27 134 40 15 3 30 9 33 14 6 11 -24 11 -51 -1z"/>
<path d="M1780 2961 c0 -21 25 -51 41 -51 6 0 3 7 -5 16 -9 8 -16 24 -16 35 0
10 -4 19 -10 19 -5 0 -10 -9 -10 -19z"/>
<path d="M2480 2975 c0 -16 33 -66 49 -74 16 -9 19 -6 24 22 3 17 1 36 -4 42
-6 5 -9 4 -9 -3 0 -17 -27 -15 -34 3 -5 14 -26 22 -26 10z"/>
<path d="M1698 2954 c-4 -3 3 -24 15 -46 26 -47 34 -37 12 15 -16 38 -18 41
-27 31z"/>
<path d="M5368 2943 c7 -3 16 -2 19 1 4 3 -2 6 -13 5 -11 0 -14 -3 -6 -6z"/>
<path d="M1480 2930 c0 -5 5 -10 10 -10 6 0 10 5 10 10 0 6 -4 10 -10 10 -5 0
-10 -4 -10 -10z"/>
<path d="M2364 2918 c3 -13 6 -29 6 -35 0 -7 7 -13 15 -13 19 0 19 4 0 40 -18
35 -30 39 -21 8z"/>
<path d="M1640 2920 c1 -15 33 -60 44 -60 12 0 5 15 -19 45 -15 18 -25 24 -25
15z"/>
<path d="M748 2913 c6 -2 18 -2 25 0 6 3 1 5 -13 5 -14 0 -19 -2 -12 -5z"/>
<path d="M1420 2904 c0 -16 36 -74 54 -86 20 -13 17 1 -3 21 -12 12 -24 35
-28 51 -6 31 -23 42 -23 14z"/>
<path d="M2056 2889 c-14 -17 -26 -37 -26 -44 0 -16 58 -35 80 -26 10 4 6 7
-12 9 -14 2 -32 10 -38 17 -10 12 -6 21 18 45 17 17 25 30 17 30 -7 0 -25 -14
-39 -31z"/>
<path d="M670 2899 c-14 -5 -45 -14 -69 -20 -23 -6 -41 -13 -38 -16 7 -6 148
28 162 39 12 10 -23 8 -55 -3z"/>
<path d="M2197 2878 c-13 -23 -14 -28 -3 -19 12 10 21 8 51 -14 19 -15 35 -31
35 -36 0 -5 9 -9 19 -9 20 0 61 -44 61 -65 0 -7 -14 -18 -30 -25 -17 -7 -33
-16 -36 -21 -6 -10 56 10 74 24 33 26 -3 77 -92 129 -26 16 -50 37 -54 48 -6
17 -9 16 -25 -12z"/>
<path d="M850 2892 c0 -8 9 -25 20 -39 26 -33 26 -17 0 22 -11 17 -20 24 -20
17z"/>
<path d="M1597 2877 c-10 -25 -10 -25 16 -38 19 -10 20 -10 11 2 -7 8 -14 23
-16 34 -3 19 -4 19 -11 2z"/>
<path d="M495 2850 c-11 -4 -76 -22 -145 -40 -69 -17 -134 -36 -145 -40 -11
-5 -29 -11 -40 -14 -11 -3 -6 -4 10 -2 17 2 64 13 105 24 41 11 117 32 168 45
52 14 96 28 100 31 8 9 -30 6 -53 -4z"/>
<path d="M1543 2835 c0 -8 4 -15 9 -15 4 0 8 7 8 15 0 8 -4 15 -8 15 -5 0 -9
-7 -9 -15z"/>
<path d="M1904 2812 c-9 -25 -7 -30 23 -56 18 -16 33 -35 33 -43 0 -7 6 -13
13 -13 16 0 67 -47 67 -62 0 -7 -10 -23 -22 -36 -22 -23 -22 -24 -2 -14 60 31
54 67 -23 128 -64 52 -72 64 -66 97 7 35 -10 35 -23 -1z"/>
<path d="M1787 2803 c-20 -16 -36 -33 -37 -40 0 -15 37 -36 53 -29 7 2 2 8
-10 11 -36 11 -29 30 27 68 13 9 20 17 14 17 -6 0 -27 -12 -47 -27z"/>
<path d="M900 2812 c0 -14 23 -57 63 -119 15 -24 27 -45 27 -47 0 -3 18 -34
40 -68 22 -35 40 -58 40 -53 0 6 -11 27 -25 47 -14 20 -25 39 -25 41 0 2 -27
51 -60 108 -33 57 -60 98 -60 91z"/>
<path d="M1685 2800 c3 -5 8 -10 11 -10 2 0 4 5 4 10 0 6 -5 10 -11 10 -5 0
-7 -4 -4 -10z"/>
<path d="M1620 2790 c0 -5 5 -10 10 -10 6 0 10 5 10 10 0 6 -4 10 -10 10 -5 0
-10 -4 -10 -10z"/>
<path d="M4095 2744 c-22 -19 -80 -66 -130 -104 -49 -38 -103 -81 -120 -95
-85 -74 -153 -139 -287 -272 l-147 -146 -122 -4 c-166 -5 -189 -16 -331 -149
-61 -57 -119 -93 -153 -95 -14 -1 -12 -3 7 -8 27 -6 22 -12 -150 -189 -145
-150 -184 -185 -217 -193 -35 -10 -37 -12 -22 -24 19 -13 12 -22 -108 -149
-16 -18 -77 -82 -134 -144 -93 -101 -109 -113 -170 -137 -36 -14 -72 -25 -79
-25 -6 0 -12 -4 -12 -9 0 -5 -12 -14 -27 -20 -22 -8 -13 -9 40 -4 38 3 67 2
67 -3 0 -9 -27 -42 -94 -114 -18 -19 -54 -62 -82 -95 -27 -33 -68 -81 -92
-106 -24 -26 -48 -54 -55 -62 -7 -9 -59 -35 -117 -58 -58 -23 -111 -46 -117
-51 -23 -18 -14 -31 15 -23 45 11 101 14 107 6 2 -5 -11 -24 -31 -42 -19 -19
-38 -42 -42 -51 -7 -17 -57 -79 -104 -130 -16 -16 -28 -33 -28 -36 0 -4 -27
-37 -60 -74 -33 -36 -60 -71 -60 -77 0 -6 -11 -18 -25 -27 -14 -9 -25 -20 -25
-25 0 -5 362 -9 848 -9 l847 1 93 137 c113 167 211 317 260 397 20 33 56 92
80 130 76 122 203 337 248 419 24 44 51 87 59 96 8 9 15 23 15 31 0 8 4 19 9
24 18 21 122 226 146 289 31 83 31 126 0 222 -14 42 -25 81 -25 86 0 5 46 102
103 216 57 114 111 227 121 252 11 25 31 72 46 105 15 33 31 71 35 85 15 49
56 130 65 130 6 0 10 9 10 21 0 11 12 40 26 65 21 36 24 47 14 59 -20 24 -52
17 -95 -21z m-427 -769 c37 -37 42 -47 32 -60 -15 -18 -33 -10 -79 39 -21 22
-31 41 -28 50 10 25 27 19 75 -29z"/>
<path d="M1580 2761 c0 -21 51 -61 79 -61 32 0 61 22 61 46 0 10 -8 7 -25 -11
-14 -14 -32 -25 -40 -25 -15 0 -55 38 -55 52 0 4 -4 8 -10 8 -5 0 -10 -4 -10
-9z"/>
<path d="M1470 2755 c0 -2 18 -32 40 -66 22 -34 40 -70 40 -79 0 -9 5 -21 11
-27 27 -27 -35 -112 -84 -114 -17 -1 -18 -2 -5 -6 27 -7 87 27 103 58 24 46
18 74 -36 159 -43 67 -69 96 -69 75z"/>
<path d="M2923 2753 c9 -2 23 -2 30 0 6 3 -1 5 -18 5 -16 0 -22 -2 -12 -5z"/>
<path d="M95 2740 c-3 -5 -17 -10 -30 -10 -13 0 -27 -5 -31 -12 -5 -7 -2 -9 9
-5 8 3 32 9 51 13 40 7 59 24 27 24 -11 0 -23 -4 -26 -10z"/>
<path d="M2073 2695 c-3 -9 -3 -18 -1 -21 3 -3 8 4 11 16 6 23 -1 27 -10 5z"/>
<path d="M2858 2703 c7 -3 16 -2 19 1 4 3 -2 6 -13 5 -11 0 -14 -3 -6 -6z"/>
<path d="M602 2638 c3 -7 20 -14 39 -14 26 -1 28 -1 7 3 -16 2 -28 9 -28 14 0
5 -5 9 -11 9 -6 0 -9 -6 -7 -12z"/>
<path d="M547 2633 c-4 -3 2 -12 13 -20 11 -8 20 -23 20 -34 0 -11 4 -18 9
-15 5 3 7 15 4 25 -6 24 -37 54 -46 44z"/>
<path d="M468 2615 c-7 -7 49 -112 64 -121 16 -10 -2 37 -27 71 -12 17 -20 36
-18 43 5 12 -9 17 -19 7z"/>
<path d="M690 2610 c0 -5 5 -10 10 -10 6 0 10 5 10 10 0 6 -4 10 -10 10 -5 0
-10 -4 -10 -10z"/>
<path d="M410 2578 c11 -12 23 -18 27 -15 3 4 -2 14 -13 22 -29 22 -37 18 -14
-7z"/>
<path d="M265 2569 c4 -16 2 -30 -4 -33 -16 -10 -13 -26 5 -26 8 0 12 5 9 10
-4 6 -1 18 6 26 10 12 9 18 -5 32 -16 16 -17 16 -11 -9z"/>
<path d="M187 2533 c27 -52 44 -76 49 -70 6 5 -25 65 -37 72 -5 4 -9 15 -9 26
0 10 -6 19 -14 19 -11 0 -8 -12 11 -47z"/>
<path d="M335 2570 c-8 -13 20 -60 36 -60 6 0 7 5 4 10 -3 6 -12 22 -20 36 -8
16 -15 21 -20 14z"/>
<path d="M1968 2573 c7 -3 16 -2 19 1 4 3 -2 6 -13 5 -11 0 -14 -3 -6 -6z"/>
<path d="M290 2500 c0 -6 7 -10 15 -10 8 0 15 2 15 4 0 2 -7 6 -15 10 -8 3
-15 1 -15 -4z"/>
<path d="M1086 2480 c22 -43 38 -48 17 -6 -9 20 -20 36 -24 36 -4 0 -1 -13 7
-30z"/>
<path d="M1160 2365 c0 -5 5 -17 10 -25 5 -8 10 -10 10 -5 0 6 -5 17 -10 25
-5 8 -10 11 -10 5z"/>
<path d="M1190 2315 c0 -5 5 -17 10 -25 5 -8 10 -10 10 -5 0 6 -5 17 -10 25
-5 8 -10 11 -10 5z"/>
<path d="M1220 2264 c0 -6 7 -19 16 -30 14 -18 14 -18 3 6 -14 31 -19 36 -19
24z"/>
</g>
</svg>
